<svg width="156.000000" height="66.000000" viewBox="0 0 156 66" fill="none" xmlns="http://www.w3.org/2000/svg" xmlns:xlink="http://www.w3.org/1999/xlink">
	<desc>
			Created with Pixso.
	</desc>
	<defs>
		<filter id="filter_23_21_dd" x="0.000000" y="0.000000" width="156.000000" height="66.000000" filterUnits="userSpaceOnUse" color-interpolation-filters="sRGB">
			<feFlood flood-opacity="0" result="BackgroundImageFix"/>
			<feColorMatrix in="SourceAlpha" type="matrix" values="0 0 0 0 0 0 0 0 0 0 0 0 0 0 0 0 0 0 127 0" result="hardAlpha"/>
			<feOffset dx="4" dy="4"/>
			<feGaussianBlur stdDeviation="2.66667"/>
			<feComposite in2="hardAlpha" operator="out" k2="-1" k3="1"/>
			<feColorMatrix type="matrix" values="0 0 0 0 0.94902 0 0 0 0 0.3451 0 0 0 0 0.13333 0 0 0 0.2 0"/>
			<feBlend mode="normal" in2="BackgroundImageFix" result="effect_dropShadow_1"/>
			<feBlend mode="normal" in="SourceGraphic" in2="effect_dropShadow_1" result="shape"/>
		</filter>
	</defs>
	<g filter="url(#filter_23_21_dd)">
		<rect id="Rectangle 3" x="4.000000" y="4.000002" rx="25.000000" width="140.000000" height="50.000000" fill="#F25822" fill-opacity="1.000000"/>
	</g>
	<path id="Start Now" d="M43.56 32.805C42.52 32.805 41.645 32.575 40.935 32.115C40.225 31.645 39.725 31.01 39.435 30.21L41.205 29.175C41.615 30.245 42.42 30.78 43.62 30.78C44.2 30.78 44.625 30.675 44.895 30.465C45.165 30.255 45.3 29.99 45.3 29.67C45.3 29.3 45.135 29.015 44.805 28.815C44.475 28.605 43.885 28.38 43.035 28.14C42.565 28 42.165 27.86 41.835 27.72C41.515 27.58 41.19 27.395 40.86 27.165C40.54 26.925 40.295 26.625 40.125 26.265C39.955 25.905 39.87 25.485 39.87 25.005C39.87 24.055 40.205 23.3 40.875 22.74C41.555 22.17 42.37 21.885 43.32 21.885C44.17 21.885 44.915 22.095 45.555 22.515C46.205 22.925 46.71 23.5 47.07 24.24L45.33 25.245C44.91 24.345 44.24 23.895 43.32 23.895C42.89 23.895 42.55 23.995 42.3 24.195C42.06 24.385 41.94 24.635 41.94 24.945C41.94 25.275 42.075 25.545 42.345 25.755C42.625 25.955 43.155 26.175 43.935 26.415C44.255 26.515 44.495 26.595 44.655 26.655C44.825 26.705 45.05 26.79 45.33 26.91C45.62 27.02 45.84 27.125 45.99 27.225C46.15 27.325 46.33 27.46 46.53 27.63C46.73 27.8 46.88 27.975 46.98 28.155C47.09 28.335 47.18 28.555 47.25 28.815C47.33 29.065 47.37 29.34 47.37 29.64C47.37 30.61 47.015 31.38 46.305 31.95C45.605 32.52 44.69 32.805 43.56 32.805ZM52.7004 26.955L51.0054 26.955L51.0054 30.075C51.0054 30.335 51.0704 30.525 51.2004 30.645C51.3304 30.765 51.5204 30.835 51.7704 30.855C52.0204 30.865 52.3304 30.86 52.7004 30.84L52.7004 32.595C51.3704 32.745 50.4304 32.62 49.8804 32.22C49.3404 31.82 49.0704 31.105 49.0704 30.075L49.0704 26.955L47.7654 26.955L47.7654 25.095L49.0704 25.095L49.0704 23.58L51.0054 22.995L51.0054 25.095L52.7004 25.095L52.7004 26.955ZM59.5303 25.095L61.4653 25.095L61.4653 32.595L59.5303 32.595L59.5303 31.71C58.9503 32.44 58.1353 32.805 57.0853 32.805C56.0853 32.805 55.2253 32.425 54.5053 31.665C53.7953 30.895 53.4403 29.955 53.4403 28.845C53.4403 27.735 53.7953 26.8 54.5053 26.04C55.2253 25.27 56.0853 24.885 57.0853 24.885C58.1353 24.885 58.9503 25.25 59.5303 25.98L59.5303 25.095ZM55.9603 30.375C56.3503 30.765 56.8453 30.96 57.4453 30.96C58.0453 30.96 58.5403 30.765 58.9303 30.375C59.3303 29.975 59.5303 29.465 59.5303 28.845C59.5303 28.225 59.3303 27.72 58.9303 27.33C58.5403 26.93 58.0453 26.73 57.4453 26.73C56.8453 26.73 56.3503 26.93 55.9603 27.33C55.5703 27.72 55.3753 28.225 55.3753 28.845C55.3753 29.465 55.5703 29.975 55.9603 30.375ZM65.155 26.385C65.335 25.905 65.63 25.545 66.04 25.305C66.46 25.065 66.925 24.945 67.435 24.945L67.435 27.105C66.845 27.035 66.315 27.155 65.845 27.465C65.385 27.775 65.155 28.29 65.155 29.01L65.155 32.595L63.22 32.595L63.22 25.095L65.155 25.095L65.155 26.385ZM73.0617 26.955L71.3667 26.955L71.3667 30.075C71.3667 30.335 71.4317 30.525 71.5617 30.645C71.6917 30.765 71.8817 30.835 72.1317 30.855C72.3817 30.865 72.6917 30.86 73.0617 30.84L73.0617 32.595C71.7317 32.745 70.7917 32.62 70.2417 32.22C69.7017 31.82 69.4317 31.105 69.4317 30.075L69.4317 26.955L68.1267 26.955L68.1267 25.095L69.4317 25.095L69.4317 23.58L71.3667 22.995L71.3667 25.095L73.0617 25.095L73.0617 26.955ZM84.4582 22.095L86.5282 22.095L86.5282 32.595L84.9532 32.595L80.4532 26.175L80.4532 32.595L78.3832 32.595L78.3832 22.095L79.9582 22.095L84.4582 28.5L84.4582 22.095ZM94.776 31.665C94.006 32.425 93.066 32.805 91.956 32.805C90.846 32.805 89.906 32.425 89.136 31.665C88.376 30.895 87.996 29.955 87.996 28.845C87.996 27.735 88.376 26.8 89.136 26.04C89.906 25.27 90.846 24.885 91.956 24.885C93.066 24.885 94.006 25.27 94.776 26.04C95.546 26.8 95.931 27.735 95.931 28.845C95.931 29.955 95.546 30.895 94.776 31.665ZM90.501 30.33C90.891 30.72 91.376 30.915 91.956 30.915C92.536 30.915 93.021 30.72 93.411 30.33C93.801 29.94 93.996 29.445 93.996 28.845C93.996 28.245 93.801 27.75 93.411 27.36C93.021 26.97 92.536 26.775 91.956 26.775C91.376 26.775 90.891 26.97 90.501 27.36C90.121 27.75 89.931 28.245 89.931 28.845C89.931 29.445 90.121 29.94 90.501 30.33ZM105.444 25.095L107.499 25.095L105.114 32.595L103.269 32.595L101.889 28.05L100.509 32.595L98.6643 32.595L96.2793 25.095L98.3343 25.095L99.6093 29.7L100.974 25.095L102.804 25.095L104.169 29.715L105.444 25.095Z" fill="#FFFFFF" fill-opacity="1.000000" fill-rule="evenodd"/>
</svg>
